<svg xmlns="http://www.w3.org/2000/svg" viewBox="0 0 1400 900" width="1400" height="900">
  <defs>
    <linearGradient id="skyGrad" x1="0" y1="0" x2="0" y2="1">
      <stop offset="0%" stop-color="#020112"/>
      <stop offset="28%" stop-color="#08041c"/>
      <stop offset="58%" stop-color="#100a2e"/>
      <stop offset="100%" stop-color="#06041a"/>
    </linearGradient>
    <radialGradient id="lglow" cx="68%" cy="9%" r="40%" fx="68%" fy="9%">
      <stop offset="0%" stop-color="#f5a200" stop-opacity="0.55"/>
      <stop offset="22%" stop-color="#c96a00" stop-opacity="0.28"/>
      <stop offset="55%" stop-color="#7a3e00" stop-opacity="0.09"/>
      <stop offset="100%" stop-color="#020112" stop-opacity="0"/>
    </radialGradient>
    <radialGradient id="botGlow" cx="61%" cy="100%" r="45%">
      <stop offset="0%" stop-color="#30085a" stop-opacity="0.38"/>
      <stop offset="100%" stop-color="#020112" stop-opacity="0"/>
    </radialGradient>
    <radialGradient id="waterRefl" cx="68%" cy="0%" r="60%">
      <stop offset="0%" stop-color="#f5a200" stop-opacity="0.12"/>
      <stop offset="100%" stop-color="#020112" stop-opacity="0"/>
    </radialGradient>
    <linearGradient id="figGrad" x1="0.3" y1="0" x2="0" y2="1">
      <stop offset="0%" stop-color="#1c0b00"/>
      <stop offset="100%" stop-color="#0e0700"/>
    </linearGradient>
    <filter id="fglow" x="-120%" y="-120%" width="340%" height="340%">
      <feGaussianBlur stdDeviation="12" result="b"/>
      <feMerge><feMergeNode in="b"/><feMergeNode in="SourceGraphic"/></feMerge>
    </filter>
    <filter id="cglow" x="-50%" y="-50%" width="200%" height="200%">
      <feGaussianBlur stdDeviation="3" result="b"/>
      <feMerge><feMergeNode in="b"/><feMergeNode in="SourceGraphic"/></feMerge>
    </filter>
    <filter id="softblur" x="-10%" y="-10%" width="120%" height="120%">
      <feGaussianBlur stdDeviation="2"/>
    </filter>
  </defs>

  <!-- ── SKY ── -->
  <rect width="1400" height="900" fill="url(#skyGrad)"/>
  <rect width="1400" height="900" fill="url(#lglow)"/>
  <rect width="1400" height="900" fill="url(#botGlow)"/>

  <!-- ── LIGHT RAYS FROM LANTERN (radiating from ~958,85) ── -->
  <g stroke="#f5a200" opacity="0.035">
    <line x1="958" y1="85" x2="0" y2="900" stroke-width="80"/>
    <line x1="958" y1="85" x2="180" y2="900" stroke-width="55"/>
    <line x1="958" y1="85" x2="420" y2="900" stroke-width="40"/>
    <line x1="958" y1="85" x2="700" y2="900" stroke-width="30"/>
    <line x1="958" y1="85" x2="958" y2="900" stroke-width="25"/>
    <line x1="958" y1="85" x2="1400" y2="600" stroke-width="35"/>
    <line x1="958" y1="85" x2="1400" y2="280" stroke-width="22"/>
    <line x1="958" y1="85" x2="0" y2="380" stroke-width="30"/>
    <line x1="958" y1="85" x2="0" y2="120" stroke-width="15"/>
  </g>

  <!-- ── STARS ── -->
  <circle cx="42" cy="36" r="2.2" fill="#fffde8" opacity="0.95"/>
  <circle cx="115" cy="70" r="1.4" fill="white" opacity="0.72"/>
  <circle cx="192" cy="26" r="1.9" fill="white" opacity="0.88"/>
  <circle cx="255" cy="85" r="1.2" fill="white" opacity="0.62"/>
  <circle cx="322" cy="40" r="1.7" fill="#fffde8" opacity="0.92"/>
  <circle cx="85" cy="145" r="1.1" fill="white" opacity="0.55"/>
  <circle cx="158" cy="160" r="1.4" fill="white" opacity="0.62"/>
  <circle cx="288" cy="130" r="1.5" fill="white" opacity="0.75"/>
  <circle cx="412" cy="55" r="1.1" fill="white" opacity="0.6"/>
  <circle cx="372" cy="165" r="1.2" fill="white" opacity="0.55"/>
  <circle cx="470" cy="108" r="1.4" fill="white" opacity="0.65"/>
  <circle cx="65" cy="218" r="1.0" fill="white" opacity="0.45"/>
  <circle cx="208" cy="230" r="1.2" fill="white" opacity="0.5"/>
  <circle cx="345" cy="250" r="1.0" fill="white" opacity="0.4"/>
  <circle cx="498" cy="172" r="1.1" fill="white" opacity="0.5"/>
  <circle cx="485" cy="245" r="1.3" fill="white" opacity="0.45"/>
  <circle cx="138" cy="288" r="1.0" fill="white" opacity="0.35"/>
  <circle cx="280" cy="310" r="1.1" fill="white" opacity="0.38"/>
  <circle cx="58" cy="340" r="0.9" fill="white" opacity="0.3"/>
  <circle cx="395" cy="308" r="1.0" fill="white" opacity="0.32"/>
  <circle cx="1022" cy="30" r="1.8" fill="#fffde8" opacity="0.9"/>
  <circle cx="1098" cy="62" r="1.4" fill="white" opacity="0.75"/>
  <circle cx="1178" cy="35" r="2.1" fill="#fffde8" opacity="0.95"/>
  <circle cx="1255" cy="80" r="1.2" fill="white" opacity="0.65"/>
  <circle cx="1332" cy="42" r="1.6" fill="white" opacity="0.82"/>
  <circle cx="1052" cy="125" r="1.2" fill="white" opacity="0.6"/>
  <circle cx="1142" cy="145" r="1.5" fill="white" opacity="0.7"/>
  <circle cx="1225" cy="122" r="1.1" fill="white" opacity="0.55"/>
  <circle cx="1298" cy="155" r="1.3" fill="white" opacity="0.65"/>
  <circle cx="1378" cy="92" r="1.8" fill="#fffde8" opacity="0.88"/>
  <circle cx="1065" cy="195" r="1.0" fill="white" opacity="0.45"/>
  <circle cx="1182" cy="212" r="1.2" fill="white" opacity="0.5"/>
  <circle cx="1315" cy="228" r="1.0" fill="white" opacity="0.4"/>
  <circle cx="1390" cy="178" r="1.3" fill="white" opacity="0.55"/>
  <circle cx="1148" cy="290" r="1.0" fill="white" opacity="0.35"/>
  <circle cx="1282" cy="315" r="1.1" fill="white" opacity="0.38"/>
  <circle cx="1358" cy="352" r="0.9" fill="white" opacity="0.3"/>
  <circle cx="55" cy="92" r="2.6" fill="#fffde8" opacity="0.95"/>
  <circle cx="1372" cy="76" r="2.3" fill="#fffde8" opacity="0.9"/>
  <circle cx="308" cy="52" r="1.9" fill="#fffde8" opacity="0.88"/>
  <circle cx="1172" cy="32" r="2.1" fill="#fffde8" opacity="0.92"/>

  <!-- ── WATER ── -->
  <rect x="0" y="848" width="1400" height="52" fill="#010110"/>
  <path d="M 0 855 Q 180 851 360 855 Q 540 859 720 855 Q 900 851 1080 855 Q 1240 851 1400 855" stroke="#120838" stroke-width="1.5" fill="none" opacity="0.8"/>
  <path d="M 0 865 Q 220 861 440 865 Q 660 869 880 865 Q 1100 861 1320 865 Q 1360 863 1400 865" stroke="#0e0630" stroke-width="1" fill="none" opacity="0.6"/>
  <path d="M 0 874 Q 280 870 560 874 Q 840 878 1120 874 Q 1280 870 1400 874" stroke="#0a0522" stroke-width="1" fill="none" opacity="0.4"/>
  <ellipse cx="958" cy="868" rx="72" ry="10" fill="url(#waterRefl)"/>
  <ellipse cx="958" cy="872" rx="40" ry="5" fill="#f5a200" opacity="0.06"/>

  <!-- ── PEDESTAL ── -->
  <path d="M 698 862 L 728 840 L 992 840 L 1022 862 Z" fill="#0c0625"/>
  <rect x="690" y="852" width="340" height="14" rx="2" fill="#09041d"/>
  <rect x="718" y="840" width="285" height="4" rx="1" fill="#150940"/>

  <!-- ══════════════════════════════════════
       MAIN FIGURE — Black woman, monumental
       Figure center ≈ x:848  head cy:162
  ══════════════════════════════════════ -->

  <!-- ROBE / BODY (main flowing gown shape) -->
  <path d="
    M 698 858
    C 700 808 706 750 712 690
    C 718 632 724 572 726 516
    C 728 466 726 420 722 382
    C 718 350 712 322 706 300
    L 714 286
    L 768 272
    L 828 264
    L 878 264
    L 938 276
    L 990 296
    C 988 320 984 350 982 386
    C 978 432 976 482 978 534
    C 980 592 986 650 994 708
    C 1002 764 1010 814 1014 858
    Z
  " fill="url(#figGrad)"/>

  <!-- LEFT ARM — hanging down, holding chains -->
  <path d="
    M 768 272
    C 756 292 744 318 736 348
    C 728 376 722 406 718 432
    C 716 448 714 462 714 474
    L 728 480
    C 730 468 732 454 736 436
    C 742 408 750 378 760 348
    C 770 318 782 292 790 272
    Z
  " fill="url(#figGrad)"/>

  <!-- RIGHT ARM — raised high, holding lantern -->
  <path d="
    M 938 276
    C 948 252 958 224 964 196
    C 970 168 972 142 970 118
    C 969 108 967 100 964 94
    L 950 100
    C 952 108 953 116 953 128
    C 952 152 948 178 942 206
    C 934 234 924 262 916 278
    Z
  " fill="url(#figGrad)"/>

  <!-- NECK (tapered column) -->
  <path d="M 810 225 C 810 210 818 202 828 200 C 838 198 850 204 854 218 L 856 250 L 808 252 Z" fill="url(#figGrad)"/>

  <!-- HEAD (circle) -->
  <circle cx="832" cy="168" r="64" fill="url(#figGrad)"/>

  <!-- CROWN — band + 5 rays (Statue of Liberty style) -->
  <path d="M 770 130 Q 830 125 892 130 L 892 150 Q 830 145 770 150 Z" fill="url(#figGrad)"/>
  <!-- Spike 1 (far left) -->
  <polygon points="778,130 771,76 787,130" fill="url(#figGrad)"/>
  <!-- Spike 2 -->
  <polygon points="800,130 793,58 809,130" fill="url(#figGrad)"/>
  <!-- Spike 3 (center, tallest) -->
  <polygon points="832,130 825,34 839,130" fill="url(#figGrad)"/>
  <!-- Spike 4 -->
  <polygon points="864,130 857,58 873,130" fill="url(#figGrad)"/>
  <!-- Spike 5 (far right) -->
  <polygon points="886,130 879,76 895,130" fill="url(#figGrad)"/>

  <!-- ── RIM LIGHTING (lantern glow on right side of figure) ── -->
  <!-- Right arm rim light -->
  <path d="
    M 938 276
    C 948 252 958 224 964 196
    C 970 168 972 142 970 118
    C 969 108 967 100 964 94
    L 962 96
    C 963 105 965 114 965 126
    C 965 150 961 176 956 204
    C 948 232 938 260 930 278
    Z
  " fill="#d47800" opacity="0.38"/>
  <!-- Right body rim light -->
  <path d="
    M 990 296
    C 988 320 984 350 982 386
    C 978 432 976 482 978 534
    C 980 592 986 650 994 708
    L 1004 704
    C 996 648 990 592 988 534
    C 986 482 988 432 992 386
    C 994 352 996 322 998 298
    Z
  " fill="#b86000" opacity="0.22"/>
  <!-- Head right-side rim light -->
  <path d="M 878 128 A 64 64 0 0 1 896 210 L 892 212 A 60 60 0 0 0 874 132 Z" fill="#d47800" opacity="0.32"/>
  <!-- Crown spike 4 + 5 rim light -->
  <polygon points="864,130 859,60 872,130" fill="#d07000" opacity="0.38"/>
  <polygon points="886,130 880,78 894,130" fill="#c06800" opacity="0.35"/>
  <!-- Crown jewel dots on band -->
  <g fill="#c9a227" opacity="0.7">
    <circle cx="780" cy="140" r="3.5"/>
    <circle cx="800" cy="140" r="3"/>
    <circle cx="820" cy="140" r="3.5"/>
    <circle cx="832" cy="140" r="4.2"/>
    <circle cx="844" cy="140" r="3.5"/>
    <circle cx="864" cy="140" r="3"/>
    <circle cx="884" cy="140" r="3.5"/>
  </g>

  <!-- ── ROBE DRAPE LINES (subtle vertical pleating) ── -->
  <g stroke="#080400" stroke-width="1.2" fill="none" opacity="0.55">
    <path d="M 782 295 C 768 380 752 472 744 564 C 738 638 736 718 738 808"/>
    <path d="M 808 278 C 798 364 786 458 780 552 C 774 628 772 710 774 805"/>
    <path d="M 834 270 C 830 357 824 452 820 548 C 816 622 815 705 818 805"/>
    <path d="M 864 272 C 864 360 862 455 862 550 C 862 625 863 706 866 806"/>
    <path d="M 896 280 C 900 368 902 462 904 556 C 904 630 903 710 900 808"/>
    <path d="M 926 292 C 935 380 938 474 940 568 C 942 642 940 720 936 808"/>
  </g>

  <!-- ══════════════════════
       BROKEN CHAINS (left hand ~720,480)
  ══════════════════════ -->
  <g filter="url(#cglow)">
    <!-- Link 1: held in hand, horizontal -->
    <ellipse cx="718" cy="490" rx="14" ry="9" fill="none" stroke="#c9a227" stroke-width="3.8"/>
    <ellipse cx="718" cy="490" rx="8" ry="5" fill="none" stroke="#f0d040" stroke-width="1.8"/>
    <!-- Link 2: vertical hanging -->
    <ellipse cx="716" cy="510" rx="9" ry="14" fill="none" stroke="#c9a227" stroke-width="3.8"/>
    <ellipse cx="716" cy="510" rx="5" ry="8" fill="none" stroke="#f0d040" stroke-width="1.8"/>
    <!-- Link 3: the BREAK — open/fractured link -->
    <path d="M 709 526 A 10 7 20 1 1 726 532" fill="none" stroke="#c9a227" stroke-width="3.8"/>
    <!-- Broken ends splaying apart -->
    <path d="M 709 526 L 702 540" stroke="#c9a227" stroke-width="3.5" fill="none" stroke-linecap="round"/>
    <path d="M 726 532 L 732 544" stroke="#c9a227" stroke-width="3.5" fill="none" stroke-linecap="round"/>
    <!-- Falling chain: scattered links dropping down the robe -->
    <ellipse cx="706" cy="618" rx="15" ry="9" fill="none" stroke="#a07b12" stroke-width="3.2" opacity="0.72"/>
    <ellipse cx="694" cy="638" rx="9" ry="14" fill="none" stroke="#a07b12" stroke-width="2.8" opacity="0.62"/>
    <ellipse cx="708" cy="658" rx="14" ry="8" fill="none" stroke="#906e10" stroke-width="2.5" opacity="0.52"/>
    <ellipse cx="696" cy="678" rx="8" ry="13" fill="none" stroke="#805e0c" stroke-width="2.2" opacity="0.42"/>
    <!-- Chain links at base / ground level -->
    <ellipse cx="740" cy="796" rx="17" ry="10" fill="none" stroke="#725208" stroke-width="2.5" opacity="0.48"/>
    <ellipse cx="760" cy="812" rx="10" ry="16" fill="none" stroke="#725208" stroke-width="2.2" opacity="0.4"/>
    <ellipse cx="780" cy="802" rx="16" ry="9" fill="none" stroke="#624808" stroke-width="2" opacity="0.34"/>
    <ellipse cx="800" cy="815" rx="9" ry="14" fill="none" stroke="#624808" stroke-width="1.8" opacity="0.28"/>
  </g>
  <!-- Chain gold fill highlight for main gripped links -->
  <g opacity="0.45">
    <ellipse cx="718" cy="490" rx="11" ry="7" fill="#c9a227"/>
    <ellipse cx="716" cy="510" rx="7" ry="11" fill="#c9a227"/>
  </g>

  <!-- ══════════════════════
       LANTERN (top of raised right arm, ~958,98)
  ══════════════════════ -->
  <!-- Wide ambient glow halos -->
  <circle cx="958" cy="72" r="80" fill="#f5a200" opacity="0.08" filter="url(#softblur)"/>
  <circle cx="958" cy="72" r="52" fill="#f5a200" opacity="0.14"/>
  <circle cx="958" cy="72" r="32" fill="#ffcc44" opacity="0.24"/>
  <circle cx="958" cy="72" r="18" fill="#ffe066" opacity="0.38"/>

  <!-- Lantern structure -->
  <!-- Hanging hook / chain -->
  <path d="M 958 20 L 958 30" stroke="#3a1800" stroke-width="3" stroke-linecap="round" fill="none"/>
  <!-- Top finial cap -->
  <path d="M 942 36 L 946 24 L 958 18 L 970 24 L 974 36 Z" fill="#2a1000" stroke="#3d1a00" stroke-width="1.5"/>
  <!-- Lantern body cage -->
  <rect x="940" y="36" width="36" height="68" rx="4" fill="#220e00" stroke="#3a1800" stroke-width="1.5"/>
  <!-- Glass panes (subtle warm amber fill) -->
  <rect x="942" y="38" width="10" height="64" rx="1" fill="#f5a200" opacity="0.08"/>
  <rect x="954" y="38" width="10" height="64" rx="1" fill="#f5a200" opacity="0.06"/>
  <rect x="966" y="38" width="8" height="64" rx="1" fill="#f5a200" opacity="0.05"/>
  <!-- Cage vertical bars -->
  <line x1="952" y1="36" x2="952" y2="104" stroke="#3a1800" stroke-width="1.2"/>
  <line x1="964" y1="36" x2="964" y2="104" stroke="#3a1800" stroke-width="1.2"/>
  <!-- Cage horizontal bars -->
  <line x1="940" y1="54" x2="976" y2="54" stroke="#3a1800" stroke-width="1.2"/>
  <line x1="940" y1="70" x2="976" y2="70" stroke="#3a1800" stroke-width="1.2"/>
  <line x1="940" y1="86" x2="976" y2="86" stroke="#3a1800" stroke-width="1.2"/>
  <!-- Bottom cap -->
  <path d="M 940 104 L 944 114 L 958 118 L 972 114 L 976 104 Z" fill="#2a1000" stroke="#3d1a00" stroke-width="1.5"/>
  <!-- Short link chain connecting to hand -->
  <path d="M 958 118 L 955 128 L 960 135 L 957 142" stroke="#3a1800" stroke-width="2.5" fill="none" stroke-linecap="round"/>

  <!-- FLAME inside lantern -->
  <g filter="url(#fglow)">
    <!-- Outer flame body -->
    <path d="M 958 100 C 948 86 946 70 950 53 C 953 44 960 44 963 53 C 967 69 965 85 958 100 Z" fill="#ff8800" opacity="0.95"/>
    <!-- Mid flame -->
    <path d="M 958 97 C 951 84 950 70 953 57 C 955 50 960 50 961 57 C 964 70 962 84 958 97 Z" fill="#ffdd44" opacity="0.98"/>
    <!-- Hot core -->
    <path d="M 958 93 C 954 82 953 70 955 61 C 956 56 960 56 961 61 C 963 70 962 82 958 93 Z" fill="#fff5cc" opacity="0.9"/>
    <!-- Bright tip -->
    <circle cx="958" cy="56" r="4" fill="white" opacity="0.75"/>
  </g>

  <!-- ── SUBTLE ATMOSPHERIC MIST at base of figure ── -->
  <ellipse cx="858" cy="855" rx="200" ry="18" fill="#150840" opacity="0.6" filter="url(#softblur)"/>
  <ellipse cx="858" cy="858" rx="280" ry="12" fill="#0a0428" opacity="0.5" filter="url(#softblur)"/>

</svg>
